# xmcd
#
# Track frame offsets: 
#        150
#        20569
#        40678
#        58147
#        74262
#        93835
#        110832
#        130972
#        150584
#        171391
#        187912
#        204428
#
# Disc length: 2971 seconds
#
# Revision: 0
# Processed by: cddbd v1.5.2PL0 Copyright (c) Steve Scherf et al.
# Submitted via: ExactAudioCopy v1.0b1
#
DISCID=a30b990c
DTITLE=Sally Harmon - Lean on Me
DYEAR=2002
DGENRE=Instrumental
TTITLE0=Hero
TTITLE1=When You Believe
TTITLE2=Wind Beneath My Wings
TTITLE3=Watermark
TTITLE4=I Will Remember You
TTITLE5=All Love Can Be
TTITLE6=Blue Mountain
TTITLE7=Never Give Up
TTITLE8=Let It Be
TTITLE9=Shed a Little Light
TTITLE10=Bridge Over Troubled Water
TTITLE11=Lean on Me
EXTD=
EXTT0=(Enrique Iglesias)
EXTT1=(from THE PRINCE OF EGYPT)
EXTT2=
EXTT3=(Enya)
EXTT4=(Sara McLachlan)
EXTT5=(from A BEAUTIFUL MIND)
EXTT6=(Sally Harmon)
EXTT7=(Sally Harmon)
EXTT8=
EXTT9=(James Taylor)
EXTT10=
EXTT11=
PLAYORDER=
